<?xml version="1.0" standalone="no"?>
<!DOCTYPE svg PUBLIC "-//W3C//DTD SVG 20010904//EN"
 "http://www.w3.org/TR/2001/REC-SVG-20010904/DTD/svg10.dtd">
<svg version="1.0" xmlns="http://www.w3.org/2000/svg"
 width="512.000000pt" height="512.000000pt" viewBox="0 0 512.000000 512.000000"
 preserveAspectRatio="xMidYMid meet">

<g transform="translate(0.000000,512.000000) scale(0.100000,-0.100000)"
fill="#000000" stroke="none">
<path d="M4043 4785 c-128 -35 -253 -136 -307 -247 l-28 -58 -439 0 c-242 0
-439 4 -439 8 0 20 -90 97 -140 121 -76 36 -191 36 -265 1 -64 -31 -124 -91
-155 -155 -36 -73 -35 -188 1 -265 24 -50 101 -140 121 -140 4 0 8 -119 8
-264 l0 -264 -109 -4 c-118 -3 -141 -12 -185 -72 -20 -26 -21 -42 -24 -377
l-3 -349 481 0 481 0 -3 349 c-3 335 -4 351 -24 377 -44 60 -67 69 -185 72
l-109 4 0 261 1 262 32 24 c18 14 44 40 58 58 l24 32 436 1 437 0 28 -57 c38
-79 135 -175 215 -213 100 -47 141 -51 457 -48 275 3 292 4 318 24 53 39 69
71 69 134 0 63 -16 95 -69 134 -26 20 -44 21 -326 26 -282 5 -300 6 -326 26
-53 39 -69 71 -69 134 0 63 16 95 69 134 26 20 44 21 326 26 282 5 300 6 326
26 53 39 69 71 69 134 0 63 -16 95 -69 134 -26 20 -42 21 -329 23 -236 2 -313
-1 -354 -12z"/>
<path d="M380 4083 c-123 -325 -48 -696 192 -949 l68 -71 0 -330 0 -331 -122
-4 c-103 -4 -131 -8 -173 -29 -63 -30 -123 -90 -155 -154 l-25 -50 0 -485 c0
-483 0 -485 23 -530 12 -25 35 -62 51 -81 37 -44 131 -95 194 -104 45 -7 47
-9 47 -39 1 -112 73 -289 157 -385 120 -137 303 -221 483 -221 322 0 603 254
636 575 l7 65 78 0 79 0 0 -32 c1 -114 72 -290 157 -387 120 -137 303 -221
483 -221 322 0 603 254 636 575 l7 65 78 0 79 0 0 -32 c1 -114 72 -290 157
-387 120 -137 303 -221 483 -221 322 0 603 254 636 574 l7 64 45 7 c52 8 125
42 169 79 16 14 45 53 64 88 l34 63 0 485 0 485 -34 63 c-37 69 -79 109 -151
144 l-45 23 -1882 3 -1883 2 0 250 0 251 53 -8 c166 -25 347 2 485 71 111 56
114 45 -55 208 -81 79 -184 178 -228 220 l-80 77 67 69 c72 74 86 110 73 179
-9 49 -69 109 -118 118 -70 13 -105 -1 -182 -76 l-71 -69 -235 225 c-129 123
-242 225 -251 225 -11 0 -24 -19 -38 -57z m891 -2844 c67 -36 98 -68 137 -143
22 -43 26 -64 26 -136 1 -78 -2 -90 -33 -148 -38 -70 -70 -100 -145 -140 -43
-22 -64 -26 -136 -26 -72 0 -93 4 -136 26 -75 40 -107 70 -145 140 -31 58 -34
70 -33 148 0 100 24 160 89 225 100 100 249 121 376 54z m1440 0 c67 -36 98
-68 137 -143 22 -43 26 -64 26 -136 1 -78 -2 -90 -33 -148 -38 -70 -70 -100
-145 -140 -43 -22 -64 -26 -136 -26 -72 0 -93 4 -136 26 -75 40 -107 70 -145
140 -31 58 -34 70 -33 148 0 100 24 160 89 225 100 100 249 121 376 54z m1440
0 c67 -36 98 -68 137 -143 22 -43 26 -64 26 -136 1 -78 -2 -90 -33 -148 -38
-70 -70 -100 -145 -140 -43 -22 -64 -26 -136 -26 -72 0 -93 4 -136 26 -75 40
-107 70 -145 140 -31 58 -34 70 -33 148 0 100 24 160 89 225 100 100 249 121
376 54z"/>
</g>
</svg>
