<?xml version="1.0" standalone="no"?>
<!DOCTYPE svg PUBLIC "-//W3C//DTD SVG 20010904//EN"
 "http://www.w3.org/TR/2001/REC-SVG-20010904/DTD/svg10.dtd">
<svg version="1.0" xmlns="http://www.w3.org/2000/svg"
 width="512.000000pt" height="512.000000pt" viewBox="0 0 512.000000 512.000000"
 preserveAspectRatio="xMidYMid meet">

<g transform="translate(0.000000,512.000000) scale(0.100000,-0.100000)"
fill="#000000" stroke="none">
<path d="M3150 4710 c-77 -14 -123 -54 -238 -208 -87 -117 -161 -258 -206
-392 -52 -158 -67 -240 -73 -410 -8 -230 12 -325 75 -344 28 -9 68 9 88 39 14
21 15 32 5 69 -16 66 -14 309 4 407 44 234 161 471 319 642 47 51 71 57 106
29 22 -18 22 -19 10 -131 -48 -433 101 -853 415 -1166 307 -308 720 -458 1144
-415 113 11 123 11 141 -5 35 -32 25 -58 -47 -125 -107 -101 -250 -188 -398
-243 -141 -53 -229 -69 -415 -74 -159 -5 -177 -7 -197 -26 -29 -26 -31 -79 -4
-106 27 -27 94 -35 240 -28 327 15 626 135 875 353 96 84 121 127 121 210 0
87 -39 148 -118 188 l-57 29 -126 -13 c-367 -38 -689 59 -968 291 -337 279
-506 717 -445 1154 14 97 3 149 -43 201 -53 60 -132 88 -208 74z"/>
<path d="M2382 3165 c-292 -53 -557 -215 -726 -445 -26 -36 -49 -66 -51 -68
-1 -1 -38 9 -81 24 -257 86 -548 1 -724 -211 -94 -114 -155 -290 -148 -431 l3
-72 -76 -6 c-78 -6 -175 -33 -239 -66 -114 -58 -226 -176 -281 -295 -31 -69
-59 -191 -59 -260 0 -123 60 -293 136 -385 89 -107 223 -190 343 -213 58 -11
65 -15 102 -64 103 -132 252 -203 429 -203 140 0 252 41 359 130 l57 47 66
-62 c76 -71 180 -126 278 -149 83 -20 219 -20 295 -1 85 21 211 86 270 138
l49 44 66 -54 c243 -201 576 -191 800 25 l75 72 45 -16 c25 -8 92 -18 150 -21
86 -5 120 -2 187 15 255 65 431 240 495 496 28 110 22 259 -15 364 -69 193
-220 346 -405 408 l-64 22 -3 129 c-4 187 -38 330 -115 486 -165 330 -479 564
-835 622 -109 18 -284 18 -383 0z m409 -164 c491 -111 830 -597 760 -1088 -11
-76 6 -109 61 -123 114 -31 177 -54 219 -81 74 -47 146 -131 186 -215 33 -69
37 -87 41 -178 7 -161 -33 -271 -140 -382 -98 -103 -220 -154 -362 -154 -86 0
-130 9 -212 42 -72 29 -95 20 -144 -51 -48 -72 -106 -121 -186 -158 -54 -26
-69 -28 -175 -28 -113 0 -117 1 -190 37 -73 36 -100 60 -195 171 -23 27 -39
37 -61 37 -35 0 -46 -8 -102 -77 -53 -65 -141 -125 -227 -153 -55 -19 -83 -22
-167 -18 -93 3 -109 7 -177 39 -91 44 -148 92 -201 170 -62 92 -109 105 -156
42 -98 -128 -177 -183 -295 -203 -154 -27 -302 44 -395 187 -20 32 -42 54 -56
57 -12 2 -51 9 -86 15 -210 35 -371 229 -371 446 1 121 41 223 125 313 108
116 214 156 403 150 l114 -3 21 27 c20 27 20 29 4 100 -53 224 27 425 217 549
150 99 359 106 512 19 91 -52 117 -42 185 74 80 139 276 307 436 375 191 82
424 105 614 62z"/>
</g>
</svg>
